# MagicaVoxel @ Ephtracy

# group
o 

# material
mtllib cat-left-hand.vox.mtl
usemtl palette

# normals
vn -1 0 0
vn 1 0 0
vn 0 0 1
vn 0 0 -1
vn 0 -1 0
vn 0 1 0

# texcoords
vt 0.00195312 0.5
vt 0.0214844 0.5
vt 0.0253906 0.5
vt 0.990234 0.5

# verts
v -0.2 -0.6 0.2
v -0.2 -0.6 0.1
v -0.2 -0.6 0
v -0.2 -0.6 -0.1
v -0.2 -0.5 0.2
v -0.2 -0.5 0.1
v -0.2 -0.5 0
v -0.2 -0.5 -0.1
v -0.2 -0.4 0.2
v -0.2 -0.4 -0.1
v -0.2 -0.3 0.2
v -0.2 -0.3 -0.1
v -0.2 -0.2 0.2
v -0.2 -0.2 -0.1
v -0.2 -0.1 0.2
v -0.2 -0.1 -0.1
v -0.2 0 0.2
v -0.2 0 -0.1
v 0 -0.6 0.2
v 0 -0.6 -0.1
v 0 -0.5 0.2
v 0 -0.5 0.1
v 0 -0.5 0
v 0 -0.5 -0.1
v 0 -0.4 0.2
v 0 -0.4 0.1
v 0 -0.4 0
v 0 -0.4 -0.1
v 0 -0.3 0.2
v 0 -0.3 0.1
v 0 -0.3 0
v 0 -0.3 -0.1
v 0 -0.2 0.2
v 0 -0.2 0.1
v 0 -0.2 0
v 0 -0.2 -0.1
v 0 -0.1 0.2
v 0 -0.1 0.1
v 0 -0.1 0
v 0 -0.1 -0.1
v 0 0 0.2
v 0 0 0.1
v 0 0 0
v 0 0 -0.1
v -0.2 -0.6 0.2
v -0.2 -0.5 0.2
v -0.2 -0.4 0.2
v -0.2 -0.3 0.2
v -0.2 -0.2 0.2
v -0.2 -0.1 0.2
v -0.2 0 0.2
v -0.1 -0.6 0.2
v -0.1 -0.5 0.2
v 0 -0.6 0.2
v 0 -0.5 0.2
v 0 -0.4 0.2
v 0 -0.3 0.2
v 0 -0.2 0.2
v 0 -0.1 0.2
v 0 0 0.2
v -0.2 -0.6 -0.1
v -0.2 -0.5 -0.1
v -0.2 -0.4 -0.1
v -0.2 -0.3 -0.1
v -0.2 -0.2 -0.1
v -0.2 -0.1 -0.1
v -0.2 0 -0.1
v -0.1 -0.6 -0.1
v -0.1 -0.5 -0.1
v 0 -0.6 -0.1
v 0 -0.5 -0.1
v 0 -0.4 -0.1
v 0 -0.3 -0.1
v 0 -0.2 -0.1
v 0 -0.1 -0.1
v 0 0 -0.1
v -0.2 -0.6 0.2
v -0.1 -0.6 0.2
v 0 -0.6 0.2
v -0.2 -0.6 0.1
v -0.1 -0.6 0.1
v -0.2 -0.6 0
v -0.1 -0.6 0
v -0.2 -0.6 -0.1
v -0.1 -0.6 -0.1
v 0 -0.6 -0.1
v -0.2 0 0.2
v 0 0 0.2
v -0.1 0 0.1
v 0 0 0.1
v -0.1 0 0
v 0 0 0
v -0.2 0 -0.1
v 0 0 -0.1

# faces
f 5/2/1 2/2/1 1/2/1
f 6/3/1 3/3/1 2/3/1
f 6/2/1 2/2/1 5/2/1
f 7/2/1 4/2/1 3/2/1
f 7/3/1 3/3/1 6/3/1
f 8/2/1 4/2/1 7/2/1
f 9/4/1 6/4/1 5/4/1
f 9/4/1 7/4/1 6/4/1
f 9/4/1 8/4/1 7/4/1
f 10/4/1 8/4/1 9/4/1
f 11/3/1 10/3/1 9/3/1
f 12/3/1 10/3/1 11/3/1
f 13/4/1 12/4/1 11/4/1
f 14/4/1 12/4/1 13/4/1
f 15/3/1 14/3/1 13/3/1
f 16/3/1 14/3/1 15/3/1
f 17/4/1 16/4/1 15/4/1
f 18/4/1 16/4/1 17/4/1
f 19/1/2 20/1/2 21/1/2
f 21/1/2 20/1/2 22/1/2
f 22/1/2 20/1/2 23/1/2
f 23/1/2 20/1/2 24/1/2
f 21/4/2 22/4/2 25/4/2
f 22/2/2 23/2/2 26/2/2
f 25/4/2 22/4/2 26/4/2
f 23/4/2 24/4/2 27/4/2
f 26/2/2 23/2/2 27/2/2
f 27/4/2 24/4/2 28/4/2
f 25/3/2 26/3/2 29/3/2
f 26/2/2 27/2/2 30/2/2
f 29/3/2 26/3/2 30/3/2
f 27/3/2 28/3/2 31/3/2
f 30/2/2 27/2/2 31/2/2
f 31/3/2 28/3/2 32/3/2
f 29/4/2 30/4/2 33/4/2
f 30/2/2 31/2/2 34/2/2
f 33/4/2 30/4/2 34/4/2
f 31/4/2 32/4/2 35/4/2
f 34/2/2 31/2/2 35/2/2
f 35/4/2 32/4/2 36/4/2
f 33/3/2 34/3/2 37/3/2
f 34/2/2 35/2/2 38/2/2
f 37/3/2 34/3/2 38/3/2
f 35/3/2 36/3/2 39/3/2
f 38/2/2 35/2/2 39/2/2
f 39/3/2 36/3/2 40/3/2
f 37/4/2 38/4/2 41/4/2
f 38/2/2 39/2/2 42/2/2
f 41/4/2 38/4/2 42/4/2
f 39/4/2 40/4/2 43/4/2
f 42/2/2 39/2/2 43/2/2
f 43/4/2 40/4/2 44/4/2
f 52/2/3 46/2/3 45/2/3
f 53/4/3 47/4/3 46/4/3
f 53/2/3 46/2/3 52/2/3
f 54/1/3 53/1/3 52/1/3
f 55/4/3 47/4/3 53/4/3
f 55/1/3 53/1/3 54/1/3
f 56/3/3 48/3/3 47/3/3
f 56/4/3 47/4/3 55/4/3
f 57/4/3 49/4/3 48/4/3
f 57/3/3 48/3/3 56/3/3
f 58/3/3 50/3/3 49/3/3
f 58/4/3 49/4/3 57/4/3
f 59/4/3 51/4/3 50/4/3
f 59/3/3 50/3/3 58/3/3
f 60/4/3 51/4/3 59/4/3
f 61/2/4 62/2/4 68/2/4
f 62/4/4 63/4/4 69/4/4
f 68/2/4 62/2/4 69/2/4
f 68/1/4 69/1/4 70/1/4
f 69/4/4 63/4/4 71/4/4
f 70/1/4 69/1/4 71/1/4
f 63/3/4 64/3/4 72/3/4
f 71/4/4 63/4/4 72/4/4
f 64/4/4 65/4/4 73/4/4
f 72/3/4 64/3/4 73/3/4
f 65/3/4 66/3/4 74/3/4
f 73/4/4 65/4/4 74/4/4
f 66/4/4 67/4/4 75/4/4
f 74/3/4 66/3/4 75/3/4
f 75/4/4 67/4/4 76/4/4
f 80/2/5 78/2/5 77/2/5
f 81/1/5 79/1/5 78/1/5
f 81/2/5 78/2/5 80/2/5
f 82/3/5 81/3/5 80/3/5
f 83/1/5 79/1/5 81/1/5
f 83/3/5 81/3/5 82/3/5
f 84/2/5 83/2/5 82/2/5
f 85/1/5 79/1/5 83/1/5
f 85/2/5 83/2/5 84/2/5
f 86/1/5 79/1/5 85/1/5
f 87/4/6 88/4/6 89/4/6
f 89/4/6 88/4/6 90/4/6
f 87/4/6 89/4/6 91/4/6
f 89/2/6 90/2/6 91/2/6
f 91/2/6 90/2/6 92/2/6
f 87/4/6 91/4/6 93/4/6
f 91/4/6 92/4/6 93/4/6
f 93/4/6 92/4/6 94/4/6
