# MagicaVoxel @ Ephtracy

# group
o 

# material
mtllib cat-head.vox.mtl
usemtl palette

# normals
vn -1 0 0
vn 1 0 0
vn 0 0 1
vn 0 0 -1
vn 0 -1 0
vn 0 1 0

# texcoords
vt 0.00195312 0.5
vt 0.00976562 0.5
vt 0.0214844 0.5
vt 0.0253906 0.5
vt 0.990234 0.5
vt 0.994141 0.5

# verts
v -1 0.2 0.6
v -1 0.2 0.5
v -1 0.3 0.6
v -1 0.3 0.5
v -1 0.4 0.6
v -1 0.4 0.5
v -1 0.5 0.6
v -1 0.5 0.5
v -0.9 0 0.6
v -0.9 0 -0.5
v -0.9 0.1 0.6
v -0.9 0.1 -0.5
v -0.9 0.2 0.6
v -0.9 0.2 0.5
v -0.9 0.2 -0.5
v -0.9 0.3 0.6
v -0.9 0.3 0.5
v -0.9 0.3 -0.5
v -0.9 0.4 0.6
v -0.9 0.4 0.5
v -0.9 0.4 -0.5
v -0.9 0.5 0.6
v -0.9 0.5 0.5
v -0.9 0.5 -0.5
v -0.9 0.6 0.6
v -0.9 0.6 -0.5
v -0.9 0.7 0.6
v -0.9 0.7 -0.5
v -0.9 0.9 0.6
v -0.9 0.9 -0.5
v -0.9 1 0.6
v -0.9 1 -0.5
v -0.9 1.2 0.6
v -0.9 1.2 -0.5
v -0.7 1.2 0.6
v -0.7 1.2 0.4
v -0.7 1.2 0.2
v -0.7 1.3 0.3
v -0.7 1.3 0.2
v -0.7 1.5 0.6
v -0.7 1.5 0.3
v -0.3 0.1 0.7
v -0.3 0.1 0.6
v -0.3 0.3 0.6
v -0.3 0.4 0.7
v -0.3 0.4 0.6
v -0.3 1.2 0.6
v -0.3 1.2 0.5
v -0.3 1.3 0.6
v -0.3 1.3 0.5
v 0 0.1 0.7
v 0 0.1 0.6
v 0 0.2 0.7
v 0 0.2 0.6
v 0.1 1.2 0.6
v 0.1 1.2 0.5
v 0.1 1.3 0.6
v 0.1 1.3 0.5
v 0.3 1.2 0.6
v 0.3 1.2 0.2
v 0.3 1.3 0.3
v 0.3 1.3 0.2
v 0.3 1.5 0.6
v 0.3 1.5 0.3
v -0.4 1.2 0.6
v -0.4 1.2 0.2
v -0.4 1.3 0.3
v -0.4 1.3 0.2
v -0.4 1.5 0.6
v -0.4 1.5 0.3
v -0.2 1.2 0.6
v -0.2 1.2 0.5
v -0.2 1.3 0.6
v -0.2 1.3 0.5
v -0.1 0.1 0.7
v -0.1 0.1 0.6
v -0.1 0.2 0.7
v -0.1 0.2 0.6
v 0.2 0.1 0.7
v 0.2 0.1 0.6
v 0.2 0.3 0.6
v 0.2 0.4 0.7
v 0.2 0.4 0.6
v 0.2 1.2 0.6
v 0.2 1.2 0.5
v 0.2 1.3 0.6
v 0.2 1.3 0.5
v 0.6 1.2 0.6
v 0.6 1.2 0.4
v 0.6 1.2 0.2
v 0.6 1.3 0.3
v 0.6 1.3 0.2
v 0.6 1.5 0.6
v 0.6 1.5 0.3
v 0.8 0 0.6
v 0.8 0 -0.5
v 0.8 0.1 0.6
v 0.8 0.1 -0.5
v 0.8 0.2 0.6
v 0.8 0.2 0.5
v 0.8 0.2 -0.5
v 0.8 0.3 0.6
v 0.8 0.3 0.5
v 0.8 0.3 -0.5
v 0.8 0.4 0.6
v 0.8 0.4 0.5
v 0.8 0.4 -0.5
v 0.8 0.5 0.6
v 0.8 0.5 0.5
v 0.8 0.5 -0.5
v 0.8 0.6 0.6
v 0.8 0.6 -0.5
v 0.8 0.7 0.6
v 0.8 0.7 -0.5
v 0.8 0.9 0.6
v 0.8 0.9 -0.5
v 0.8 1 0.6
v 0.8 1 -0.5
v 0.8 1.2 0.6
v 0.8 1.2 -0.5
v 0.9 0.2 0.6
v 0.9 0.2 0.5
v 0.9 0.3 0.6
v 0.9 0.3 0.5
v 0.9 0.4 0.6
v 0.9 0.4 0.5
v 0.9 0.5 0.6
v 0.9 0.5 0.5
v -0.3 0.1 0.7
v -0.3 0.4 0.7
v -0.1 0.1 0.7
v -0.1 0.2 0.7
v -0.1 0.3 0.7
v -0.1 0.4 0.7
v 0 0.1 0.7
v 0 0.2 0.7
v 0 0.3 0.7
v 0 0.4 0.7
v 0.2 0.1 0.7
v 0.2 0.4 0.7
v -1 0.2 0.6
v -1 0.3 0.6
v -1 0.4 0.6
v -1 0.5 0.6
v -0.9 0 0.6
v -0.9 0.1 0.6
v -0.9 0.2 0.6
v -0.9 0.3 0.6
v -0.9 0.4 0.6
v -0.9 0.5 0.6
v -0.9 0.6 0.6
v -0.9 0.7 0.6
v -0.9 0.9 0.6
v -0.9 1 0.6
v -0.9 1.2 0.6
v -0.8 0 0.6
v -0.8 0.1 0.6
v -0.7 0.1 0.6
v -0.7 0.2 0.6
v -0.7 0.3 0.6
v -0.7 0.4 0.6
v -0.7 0.5 0.6
v -0.7 0.6 0.6
v -0.7 0.7 0.6
v -0.7 0.9 0.6
v -0.7 1 0.6
v -0.7 1.2 0.6
v -0.7 1.5 0.6
v -0.6 0.1 0.6
v -0.6 0.2 0.6
v -0.6 1.2 0.6
v -0.6 1.4 0.6
v -0.5 0.3 0.6
v -0.5 0.4 0.6
v -0.5 0.7 0.6
v -0.5 1.2 0.6
v -0.5 1.4 0.6
v -0.4 0.1 0.6
v -0.4 0.2 0.6
v -0.4 0.9 0.6
v -0.4 1.2 0.6
v -0.4 1.5 0.6
v -0.3 0.1 0.6
v -0.3 0.3 0.6
v -0.3 0.4 0.6
v -0.3 0.7 0.6
v -0.3 0.9 0.6
v -0.3 1.2 0.6
v -0.3 1.3 0.6
v -0.2 0.8 0.6
v -0.2 0.9 0.6
v -0.2 1.2 0.6
v -0.2 1.3 0.6
v -0.1 0.1 0.6
v -0.1 0.2 0.6
v -0.1 0.4 0.6
v -0.1 0.8 0.6
v -0.1 1.2 0.6
v 0 0.1 0.6
v 0 0.2 0.6
v 0 0.4 0.6
v 0 0.8 0.6
v 0 1.2 0.6
v 0.1 0.8 0.6
v 0.1 0.9 0.6
v 0.1 1.2 0.6
v 0.1 1.3 0.6
v 0.2 0.1 0.6
v 0.2 0.3 0.6
v 0.2 0.4 0.6
v 0.2 0.7 0.6
v 0.2 0.9 0.6
v 0.2 1.2 0.6
v 0.2 1.3 0.6
v 0.3 0.1 0.6
v 0.3 0.2 0.6
v 0.3 0.9 0.6
v 0.3 1.2 0.6
v 0.3 1.5 0.6
v 0.4 0.3 0.6
v 0.4 0.4 0.6
v 0.4 0.7 0.6
v 0.4 1.2 0.6
v 0.4 1.4 0.6
v 0.5 0.1 0.6
v 0.5 0.2 0.6
v 0.5 1.2 0.6
v 0.5 1.4 0.6
v 0.6 0.1 0.6
v 0.6 0.2 0.6
v 0.6 0.3 0.6
v 0.6 0.4 0.6
v 0.6 0.5 0.6
v 0.6 0.6 0.6
v 0.6 0.7 0.6
v 0.6 0.9 0.6
v 0.6 1 0.6
v 0.6 1.2 0.6
v 0.6 1.5 0.6
v 0.7 0 0.6
v 0.7 0.1 0.6
v 0.8 0 0.6
v 0.8 0.1 0.6
v 0.8 0.2 0.6
v 0.8 0.3 0.6
v 0.8 0.4 0.6
v 0.8 0.5 0.6
v 0.8 0.6 0.6
v 0.8 0.7 0.6
v 0.8 0.9 0.6
v 0.8 1 0.6
v 0.8 1.2 0.6
v 0.9 0.2 0.6
v 0.9 0.3 0.6
v 0.9 0.4 0.6
v 0.9 0.5 0.6
v -1 0.2 0.5
v -1 0.3 0.5
v -1 0.4 0.5
v -1 0.5 0.5
v -0.9 0.2 0.5
v -0.9 0.3 0.5
v -0.9 0.4 0.5
v -0.9 0.5 0.5
v -0.3 1.2 0.5
v -0.3 1.3 0.5
v -0.2 1.2 0.5
v -0.2 1.3 0.5
v 0.1 1.2 0.5
v 0.1 1.3 0.5
v 0.2 1.2 0.5
v 0.2 1.3 0.5
v 0.8 0.2 0.5
v 0.8 0.3 0.5
v 0.8 0.4 0.5
v 0.8 0.5 0.5
v 0.9 0.2 0.5
v 0.9 0.3 0.5
v 0.9 0.4 0.5
v 0.9 0.5 0.5
v -0.7 1.3 0.3
v -0.7 1.5 0.3
v -0.4 1.3 0.3
v -0.4 1.5 0.3
v 0.3 1.3 0.3
v 0.3 1.5 0.3
v 0.6 1.3 0.3
v 0.6 1.5 0.3
v -0.7 1.2 0.2
v -0.7 1.3 0.2
v -0.4 1.2 0.2
v -0.4 1.3 0.2
v 0.3 1.2 0.2
v 0.3 1.3 0.2
v 0.6 1.2 0.2
v 0.6 1.3 0.2
v -0.9 0 -0.5
v -0.9 0.1 -0.5
v -0.9 0.2 -0.5
v -0.9 0.3 -0.5
v -0.9 0.4 -0.5
v -0.9 0.5 -0.5
v -0.9 0.6 -0.5
v -0.9 0.7 -0.5
v -0.9 0.9 -0.5
v -0.9 1 -0.5
v -0.9 1.2 -0.5
v -0.8 1 -0.5
v -0.8 1.2 -0.5
v -0.7 1 -0.5
v -0.7 1.2 -0.5
v -0.3 1 -0.5
v -0.3 1.2 -0.5
v -0.2 1 -0.5
v -0.2 1.2 -0.5
v -0.1 1 -0.5
v -0.1 1.2 -0.5
v 0 1 -0.5
v 0 1.2 -0.5
v 0.1 1 -0.5
v 0.1 1.2 -0.5
v 0.2 1 -0.5
v 0.2 1.2 -0.5
v 0.6 1 -0.5
v 0.6 1.2 -0.5
v 0.7 1 -0.5
v 0.7 1.2 -0.5
v 0.8 0 -0.5
v 0.8 0.1 -0.5
v 0.8 0.2 -0.5
v 0.8 0.3 -0.5
v 0.8 0.4 -0.5
v 0.8 0.5 -0.5
v 0.8 0.6 -0.5
v 0.8 0.7 -0.5
v 0.8 0.9 -0.5
v 0.8 1 -0.5
v 0.8 1.2 -0.5
v -0.9 0 0.6
v -0.8 0 0.6
v 0.7 0 0.6
v 0.8 0 0.6
v -0.8 0 0.5
v -0.6 0 0.5
v 0.5 0 0.5
v 0.7 0 0.5
v -0.6 0 -0.1
v 0.5 0 -0.1
v -0.9 0 -0.5
v 0.8 0 -0.5
v -0.3 0.1 0.7
v -0.1 0.1 0.7
v 0 0.1 0.7
v 0.2 0.1 0.7
v -0.3 0.1 0.6
v -0.1 0.1 0.6
v 0 0.1 0.6
v 0.2 0.1 0.6
v -0.1 0.2 0.7
v 0 0.2 0.7
v -1 0.2 0.6
v -0.9 0.2 0.6
v -0.1 0.2 0.6
v 0 0.2 0.6
v 0.8 0.2 0.6
v 0.9 0.2 0.6
v -1 0.2 0.5
v -0.9 0.2 0.5
v 0.8 0.2 0.5
v 0.9 0.2 0.5
v -1 0.4 0.6
v -0.9 0.4 0.6
v 0.8 0.4 0.6
v 0.9 0.4 0.6
v -1 0.4 0.5
v -0.9 0.4 0.5
v 0.8 0.4 0.5
v 0.9 0.4 0.5
v -1 0.3 0.6
v -0.9 0.3 0.6
v 0.8 0.3 0.6
v 0.9 0.3 0.6
v -1 0.3 0.5
v -0.9 0.3 0.5
v 0.8 0.3 0.5
v 0.9 0.3 0.5
v -0.3 0.4 0.7
v -0.1 0.4 0.7
v 0 0.4 0.7
v 0.2 0.4 0.7
v -0.3 0.4 0.6
v -0.1 0.4 0.6
v 0 0.4 0.6
v 0.2 0.4 0.6
v -1 0.5 0.6
v -0.9 0.5 0.6
v 0.8 0.5 0.6
v 0.9 0.5 0.6
v -1 0.5 0.5
v -0.9 0.5 0.5
v 0.8 0.5 0.5
v 0.9 0.5 0.5
v -0.9 1.2 0.6
v -0.7 1.2 0.6
v -0.4 1.2 0.6
v -0.3 1.2 0.6
v -0.2 1.2 0.6
v -0.1 1.2 0.6
v 0 1.2 0.6
v 0.1 1.2 0.6
v 0.2 1.2 0.6
v 0.3 1.2 0.6
v 0.6 1.2 0.6
v 0.8 1.2 0.6
v -0.3 1.2 0.5
v -0.2 1.2 0.5
v 0.1 1.2 0.5
v 0.2 1.2 0.5
v -0.8 1.2 0.4
v -0.7 1.2 0.4
v 0.6 1.2 0.4
v 0.7 1.2 0.4
v -0.7 1.2 0.2
v -0.4 1.2 0.2
v 0.3 1.2 0.2
v 0.6 1.2 0.2
v -0.4 1.2 5.96046e-08
v -0.3 1.2 5.96046e-08
v 0.2 1.2 5.96046e-08
v 0.3 1.2 5.96046e-08
v -0.2 1.2 -0.1
v -0.1 1.2 -0.1
v 0 1.2 -0.1
v 0.1 1.2 -0.1
v -0.9 1.2 -0.5
v -0.8 1.2 -0.5
v -0.7 1.2 -0.5
v -0.3 1.2 -0.5
v -0.2 1.2 -0.5
v -0.1 1.2 -0.5
v 0 1.2 -0.5
v 0.1 1.2 -0.5
v 0.2 1.2 -0.5
v 0.6 1.2 -0.5
v 0.7 1.2 -0.5
v 0.8 1.2 -0.5
v -0.3 1.3 0.6
v -0.2 1.3 0.6
v 0.1 1.3 0.6
v 0.2 1.3 0.6
v -0.3 1.3 0.5
v -0.2 1.3 0.5
v 0.1 1.3 0.5
v 0.2 1.3 0.5
v -0.7 1.3 0.3
v -0.4 1.3 0.3
v 0.3 1.3 0.3
v 0.6 1.3 0.3
v -0.7 1.3 0.2
v -0.4 1.3 0.2
v 0.3 1.3 0.2
v 0.6 1.3 0.2
v -0.7 1.5 0.6
v -0.4 1.5 0.6
v 0.3 1.5 0.6
v 0.6 1.5 0.6
v -0.7 1.5 0.3
v -0.4 1.5 0.3
v 0.3 1.5 0.3
v 0.6 1.5 0.3

# faces
f 3/3/1 2/3/1 1/3/1
f 4/3/1 2/3/1 3/3/1
f 7/3/1 6/3/1 5/3/1
f 8/3/1 6/3/1 7/3/1
f 11/4/1 10/4/1 9/4/1
f 12/4/1 10/4/1 11/4/1
f 13/5/1 12/5/1 11/5/1
f 14/5/1 12/5/1 13/5/1
f 15/5/1 12/5/1 14/5/1
f 17/3/1 15/3/1 14/3/1
f 18/3/1 15/3/1 17/3/1
f 19/5/1 17/5/1 16/5/1
f 19/5/1 18/5/1 17/5/1
f 20/5/1 18/5/1 19/5/1
f 21/5/1 18/5/1 20/5/1
f 23/3/1 21/3/1 20/3/1
f 24/3/1 21/3/1 23/3/1
f 25/5/1 23/5/1 22/5/1
f 25/5/1 24/5/1 23/5/1
f 26/5/1 24/5/1 25/5/1
f 27/4/1 26/4/1 25/4/1
f 28/4/1 26/4/1 27/4/1
f 29/3/1 28/3/1 27/3/1
f 30/3/1 28/3/1 29/3/1
f 31/5/1 30/5/1 29/5/1
f 32/5/1 30/5/1 31/5/1
f 33/4/1 32/4/1 31/4/1
f 34/4/1 32/4/1 33/4/1
f 38/4/1 36/4/1 35/4/1
f 38/4/1 37/4/1 36/4/1
f 39/4/1 37/4/1 38/4/1
f 40/4/1 38/4/1 35/4/1
f 41/4/1 38/4/1 40/4/1
f 44/3/1 43/3/1 42/3/1
f 45/3/1 44/3/1 42/3/1
f 46/3/1 44/3/1 45/3/1
f 49/3/1 48/3/1 47/3/1
f 50/3/1 48/3/1 49/3/1
f 53/3/1 52/3/1 51/3/1
f 54/3/1 52/3/1 53/3/1
f 57/3/1 56/3/1 55/3/1
f 58/3/1 56/3/1 57/3/1
f 61/4/1 60/4/1 59/4/1
f 62/4/1 60/4/1 61/4/1
f 63/4/1 61/4/1 59/4/1
f 64/4/1 61/4/1 63/4/1
f 65/4/2 66/4/2 67/4/2
f 67/4/2 66/4/2 68/4/2
f 65/4/2 67/4/2 69/4/2
f 69/4/2 67/4/2 70/4/2
f 71/3/2 72/3/2 73/3/2
f 73/3/2 72/3/2 74/3/2
f 75/3/2 76/3/2 77/3/2
f 77/3/2 76/3/2 78/3/2
f 79/3/2 80/3/2 81/3/2
f 79/3/2 81/3/2 82/3/2
f 82/3/2 81/3/2 83/3/2
f 84/3/2 85/3/2 86/3/2
f 86/3/2 85/3/2 87/3/2
f 88/4/2 89/4/2 91/4/2
f 89/4/2 90/4/2 91/4/2
f 91/4/2 90/4/2 92/4/2
f 88/4/2 91/4/2 93/4/2
f 93/4/2 91/4/2 94/4/2
f 95/4/2 96/4/2 97/4/2
f 97/4/2 96/4/2 98/4/2
f 97/5/2 98/5/2 99/5/2
f 99/5/2 98/5/2 100/5/2
f 100/5/2 98/5/2 101/5/2
f 100/3/2 101/3/2 103/3/2
f 103/3/2 101/3/2 104/3/2
f 102/5/2 103/5/2 105/5/2
f 103/5/2 104/5/2 105/5/2
f 105/5/2 104/5/2 106/5/2
f 106/5/2 104/5/2 107/5/2
f 106/3/2 107/3/2 109/3/2
f 109/3/2 107/3/2 110/3/2
f 108/5/2 109/5/2 111/5/2
f 109/5/2 110/5/2 111/5/2
f 111/5/2 110/5/2 112/5/2
f 111/4/2 112/4/2 113/4/2
f 113/4/2 112/4/2 114/4/2
f 113/3/2 114/3/2 115/3/2
f 115/3/2 114/3/2 116/3/2
f 115/5/2 116/5/2 117/5/2
f 117/5/2 116/5/2 118/5/2
f 117/4/2 118/4/2 119/4/2
f 119/4/2 118/4/2 120/4/2
f 121/3/2 122/3/2 123/3/2
f 123/3/2 122/3/2 124/3/2
f 125/3/2 126/3/2 127/3/2
f 127/3/2 126/3/2 128/3/2
f 131/3/3 130/3/3 129/3/3
f 132/3/3 130/3/3 131/3/3
f 133/3/3 130/3/3 132/3/3
f 134/3/3 130/3/3 133/3/3
f 136/3/3 133/3/3 132/3/3
f 137/1/3 134/1/3 133/1/3
f 137/3/3 133/3/3 136/3/3
f 138/1/3 134/1/3 137/1/3
f 139/3/3 136/3/3 135/3/3
f 139/3/3 137/3/3 136/3/3
f 139/3/3 138/3/3 137/3/3
f 140/3/3 138/3/3 139/3/3
f 147/3/3 142/3/3 141/3/3
f 148/3/3 142/3/3 147/3/3
f 149/3/3 144/3/3 143/3/3
f 150/3/3 144/3/3 149/3/3
f 156/4/3 146/4/3 145/4/3
f 157/5/3 147/5/3 146/5/3
f 157/4/3 146/4/3 156/4/3
f 158/3/3 157/3/3 156/3/3
f 158/5/3 147/5/3 157/5/3
f 159/3/3 148/3/3 147/3/3
f 159/5/3 147/5/3 158/5/3
f 160/5/3 149/5/3 148/5/3
f 160/3/3 148/3/3 159/3/3
f 161/3/3 150/3/3 149/3/3
f 161/5/3 149/5/3 160/5/3
f 162/5/3 151/5/3 150/5/3
f 162/3/3 150/3/3 161/3/3
f 163/4/3 152/4/3 151/4/3
f 163/5/3 151/5/3 162/5/3
f 164/3/3 153/3/3 152/3/3
f 164/4/3 152/4/3 163/4/3
f 165/5/3 154/5/3 153/5/3
f 165/3/3 153/3/3 164/3/3
f 166/4/3 155/4/3 154/4/3
f 166/5/3 154/5/3 165/5/3
f 167/4/3 155/4/3 166/4/3
f 169/3/3 165/3/3 164/3/3
f 169/3/3 158/3/3 156/3/3
f 169/3/3 167/3/3 166/3/3
f 169/3/3 166/3/3 165/3/3
f 169/3/3 164/3/3 163/3/3
f 169/3/3 163/3/3 162/3/3
f 169/3/3 162/3/3 161/3/3
f 169/3/3 161/3/3 160/3/3
f 169/3/3 160/3/3 159/3/3
f 169/3/3 159/3/3 158/3/3
f 170/3/3 167/3/3 169/3/3
f 171/4/3 168/4/3 167/4/3
f 171/3/3 167/3/3 170/3/3
f 172/4/3 168/4/3 171/4/3
f 173/3/3 171/3/3 170/3/3
f 173/3/3 172/3/3 171/3/3
f 174/3/3 172/3/3 173/3/3
f 175/3/3 172/3/3 174/3/3
f 176/3/3 172/3/3 175/3/3
f 177/4/3 168/4/3 172/4/3
f 177/3/3 172/3/3 176/3/3
f 178/1/3 170/1/3 169/1/3
f 178/3/3 169/3/3 156/3/3
f 179/3/3 173/3/3 170/3/3
f 179/1/3 170/1/3 178/1/3
f 180/3/3 176/3/3 175/3/3
f 181/4/3 177/4/3 176/4/3
f 181/3/3 176/3/3 180/3/3
f 182/4/3 168/4/3 177/4/3
f 182/4/3 177/4/3 181/4/3
f 183/3/3 178/3/3 156/3/3
f 183/3/3 179/3/3 178/3/3
f 184/3/3 173/3/3 179/3/3
f 184/3/3 179/3/3 183/3/3
f 184/2/3 174/2/3 173/2/3
f 185/6/3 175/6/3 174/6/3
f 185/2/3 174/2/3 184/2/3
f 186/3/3 180/3/3 175/3/3
f 186/6/3 175/6/3 185/6/3
f 187/5/3 181/5/3 180/5/3
f 187/3/3 180/3/3 186/3/3
f 188/5/3 181/5/3 187/5/3
f 190/3/3 186/3/3 185/3/3
f 190/3/3 187/3/3 186/3/3
f 191/4/3 188/4/3 187/4/3
f 191/3/3 187/3/3 190/3/3
f 192/3/3 189/3/3 188/3/3
f 192/4/3 188/4/3 191/4/3
f 193/3/3 189/3/3 192/3/3
f 194/3/3 183/3/3 156/3/3
f 196/3/3 190/3/3 185/3/3
f 197/5/3 191/5/3 190/5/3
f 197/3/3 190/3/3 196/3/3
f 197/5/3 192/5/3 191/5/3
f 198/5/3 192/5/3 197/5/3
f 199/3/3 195/3/3 194/3/3
f 199/3/3 194/3/3 156/3/3
f 200/3/3 195/3/3 199/3/3
f 201/3/3 198/3/3 197/3/3
f 201/3/3 197/3/3 196/3/3
f 202/3/3 198/3/3 201/3/3
f 203/3/3 198/3/3 202/3/3
f 204/3/3 202/3/3 201/3/3
f 204/5/3 203/5/3 202/5/3
f 205/5/3 203/5/3 204/5/3
f 206/5/3 203/5/3 205/5/3
f 208/3/3 199/3/3 156/3/3
f 210/3/3 205/3/3 204/3/3
f 210/3/3 204/3/3 201/3/3
f 211/3/3 205/3/3 210/3/3
f 212/4/3 206/4/3 205/4/3
f 212/3/3 205/3/3 211/3/3
f 213/3/3 207/3/3 206/3/3
f 213/4/3 206/4/3 212/4/3
f 214/3/3 207/3/3 213/3/3
f 215/3/3 209/3/3 208/3/3
f 215/3/3 208/3/3 156/3/3
f 216/3/3 209/3/3 215/3/3
f 217/3/3 212/3/3 211/3/3
f 217/5/3 213/5/3 212/5/3
f 218/5/3 213/5/3 217/5/3
f 220/3/3 209/3/3 216/3/3
f 220/2/3 210/2/3 209/2/3
f 221/6/3 211/6/3 210/6/3
f 221/2/3 210/2/3 220/2/3
f 222/3/3 218/3/3 217/3/3
f 222/6/3 211/6/3 221/6/3
f 222/3/3 217/3/3 211/3/3
f 223/4/3 219/4/3 218/4/3
f 223/3/3 218/3/3 222/3/3
f 224/4/3 219/4/3 223/4/3
f 225/3/3 215/3/3 156/3/3
f 225/1/3 216/1/3 215/1/3
f 226/3/3 220/3/3 216/3/3
f 226/1/3 216/1/3 225/1/3
f 226/3/3 221/3/3 220/3/3
f 226/3/3 223/3/3 222/3/3
f 226/3/3 222/3/3 221/3/3
f 226/3/3 224/3/3 223/3/3
f 227/3/3 224/3/3 226/3/3
f 228/4/3 219/4/3 224/4/3
f 228/3/3 224/3/3 227/3/3
f 229/3/3 225/3/3 156/3/3
f 229/3/3 227/3/3 226/3/3
f 229/3/3 226/3/3 225/3/3
f 230/3/3 227/3/3 229/3/3
f 231/3/3 227/3/3 230/3/3
f 232/3/3 227/3/3 231/3/3
f 233/3/3 227/3/3 232/3/3
f 234/3/3 227/3/3 233/3/3
f 235/3/3 227/3/3 234/3/3
f 236/3/3 227/3/3 235/3/3
f 237/3/3 227/3/3 236/3/3
f 238/4/3 228/4/3 227/4/3
f 238/3/3 227/3/3 237/3/3
f 239/4/3 219/4/3 228/4/3
f 239/4/3 228/4/3 238/4/3
f 240/3/3 229/3/3 156/3/3
f 241/5/3 230/5/3 229/5/3
f 241/3/3 229/3/3 240/3/3
f 242/4/3 241/4/3 240/4/3
f 243/5/3 230/5/3 241/5/3
f 243/4/3 241/4/3 242/4/3
f 244/3/3 231/3/3 230/3/3
f 244/5/3 230/5/3 243/5/3
f 245/5/3 232/5/3 231/5/3
f 245/3/3 231/3/3 244/3/3
f 246/3/3 233/3/3 232/3/3
f 246/5/3 232/5/3 245/5/3
f 247/5/3 234/5/3 233/5/3
f 247/3/3 233/3/3 246/3/3
f 248/4/3 235/4/3 234/4/3
f 248/5/3 234/5/3 247/5/3
f 249/3/3 236/3/3 235/3/3
f 249/4/3 235/4/3 248/4/3
f 250/5/3 237/5/3 236/5/3
f 250/3/3 236/3/3 249/3/3
f 251/4/3 238/4/3 237/4/3
f 251/5/3 237/5/3 250/5/3
f 252/4/3 238/4/3 251/4/3
f 253/3/3 245/3/3 244/3/3
f 254/3/3 245/3/3 253/3/3
f 255/3/3 247/3/3 246/3/3
f 256/3/3 247/3/3 255/3/3
f 257/3/4 258/3/4 261/3/4
f 261/3/4 258/3/4 262/3/4
f 259/3/4 260/3/4 263/3/4
f 263/3/4 260/3/4 264/3/4
f 265/3/4 266/3/4 267/3/4
f 267/3/4 266/3/4 268/3/4
f 269/3/4 270/3/4 271/3/4
f 271/3/4 270/3/4 272/3/4
f 273/3/4 274/3/4 277/3/4
f 277/3/4 274/3/4 278/3/4
f 275/3/4 276/3/4 279/3/4
f 279/3/4 276/3/4 280/3/4
f 281/4/4 282/4/4 283/4/4
f 283/4/4 282/4/4 284/4/4
f 285/4/4 286/4/4 287/4/4
f 287/4/4 286/4/4 288/4/4
f 289/4/4 290/4/4 291/4/4
f 291/4/4 290/4/4 292/4/4
f 293/4/4 294/4/4 295/4/4
f 295/4/4 294/4/4 296/4/4
f 305/5/4 306/5/4 308/5/4
f 306/4/4 307/4/4 308/4/4
f 308/4/4 307/4/4 309/4/4
f 305/5/4 308/5/4 310/5/4
f 308/3/4 309/3/4 310/3/4
f 310/3/4 309/3/4 311/3/4
f 305/5/4 310/5/4 312/5/4
f 310/4/4 311/4/4 312/4/4
f 312/4/4 311/4/4 313/4/4
f 305/5/4 312/5/4 314/5/4
f 312/3/4 313/3/4 314/3/4
f 314/3/4 313/3/4 315/3/4
f 305/5/4 314/5/4 316/5/4
f 314/4/4 315/4/4 316/4/4
f 316/4/4 315/4/4 317/4/4
f 305/5/4 316/5/4 318/5/4
f 316/3/4 317/3/4 318/3/4
f 318/3/4 317/3/4 319/3/4
f 305/5/4 318/5/4 320/5/4
f 318/4/4 319/4/4 320/4/4
f 320/4/4 319/4/4 321/4/4
f 305/5/4 320/5/4 322/5/4
f 320/3/4 321/3/4 322/3/4
f 322/3/4 321/3/4 323/3/4
f 305/5/4 322/5/4 324/5/4
f 322/4/4 323/4/4 324/4/4
f 324/4/4 323/4/4 325/4/4
f 305/5/4 324/5/4 326/5/4
f 324/3/4 325/3/4 326/3/4
f 326/3/4 325/3/4 327/3/4
f 297/4/4 298/4/4 328/4/4
f 298/5/4 299/5/4 329/5/4
f 328/4/4 298/4/4 329/4/4
f 299/3/4 300/3/4 330/3/4
f 329/5/4 299/5/4 330/5/4
f 300/5/4 301/5/4 331/5/4
f 330/3/4 300/3/4 331/3/4
f 301/3/4 302/3/4 332/3/4
f 331/5/4 301/5/4 332/5/4
f 302/5/4 303/5/4 333/5/4
f 332/3/4 302/3/4 333/3/4
f 303/4/4 304/4/4 334/4/4
f 333/5/4 303/5/4 334/5/4
f 304/3/4 305/3/4 335/3/4
f 334/4/4 304/4/4 335/4/4
f 305/5/4 326/5/4 336/5/4
f 335/3/4 305/3/4 336/3/4
f 326/4/4 327/4/4 337/4/4
f 336/5/4 326/5/4 337/5/4
f 337/4/4 327/4/4 338/4/4
f 343/4/5 340/4/5 339/4/5
f 343/3/5 341/3/5 340/3/5
f 344/3/5 341/3/5 343/3/5
f 345/3/5 341/3/5 344/3/5
f 346/4/5 342/4/5 341/4/5
f 346/3/5 341/3/5 345/3/5
f 347/3/5 345/3/5 344/3/5
f 347/4/5 344/4/5 343/4/5
f 348/4/5 346/4/5 345/4/5
f 348/3/5 345/3/5 347/3/5
f 349/4/5 343/4/5 339/4/5
f 349/4/5 347/4/5 343/4/5
f 349/4/5 348/4/5 347/4/5
f 350/4/5 342/4/5 346/4/5
f 350/4/5 348/4/5 349/4/5
f 350/4/5 346/4/5 348/4/5
f 355/3/5 352/3/5 351/3/5
f 356/3/5 352/3/5 355/3/5
f 357/3/5 354/3/5 353/3/5
f 358/3/5 354/3/5 357/3/5
f 363/3/5 360/3/5 359/3/5
f 364/3/5 360/3/5 363/3/5
f 367/3/5 362/3/5 361/3/5
f 368/3/5 362/3/5 367/3/5
f 369/3/5 366/3/5 365/3/5
f 370/3/5 366/3/5 369/3/5
f 375/3/5 372/3/5 371/3/5
f 376/3/5 372/3/5 375/3/5
f 377/3/5 374/3/5 373/3/5
f 378/3/5 374/3/5 377/3/5
f 379/3/6 380/3/6 383/3/6
f 383/3/6 380/3/6 384/3/6
f 381/3/6 382/3/6 385/3/6
f 385/3/6 382/3/6 386/3/6
f 387/3/6 388/3/6 391/3/6
f 388/1/6 389/1/6 392/1/6
f 391/3/6 388/3/6 392/3/6
f 389/3/6 390/3/6 393/3/6
f 392/1/6 389/1/6 393/1/6
f 393/3/6 390/3/6 394/3/6
f 395/3/6 396/3/6 399/3/6
f 399/3/6 396/3/6 400/3/6
f 397/3/6 398/3/6 401/3/6
f 401/3/6 398/3/6 402/3/6
f 405/5/6 406/5/6 415/5/6
f 407/5/6 408/5/6 416/5/6
f 409/5/6 410/5/6 417/5/6
f 411/5/6 412/5/6 418/5/6
f 403/4/6 404/4/6 419/4/6
f 419/4/6 404/4/6 420/4/6
f 413/4/6 414/4/6 421/4/6
f 421/4/6 414/4/6 422/4/6
f 419/3/6 420/3/6 423/3/6
f 405/5/6 415/5/6 424/5/6
f 418/5/6 412/5/6 425/5/6
f 421/3/6 422/3/6 426/3/6
f 423/4/6 424/4/6 427/4/6
f 424/5/6 415/5/6 427/5/6
f 415/3/6 416/3/6 428/3/6
f 427/5/6 415/5/6 428/5/6
f 417/3/6 418/3/6 429/3/6
f 418/5/6 425/5/6 429/5/6
f 425/4/6 426/4/6 430/4/6
f 429/5/6 425/5/6 430/5/6
f 428/3/6 416/3/6 431/3/6
f 416/5/6 408/5/6 431/5/6
f 408/3/6 409/3/6 432/3/6
f 431/5/6 408/5/6 432/5/6
f 409/5/6 417/5/6 433/5/6
f 432/3/6 409/3/6 433/3/6
f 417/3/6 429/3/6 434/3/6
f 433/5/6 417/5/6 434/5/6
f 403/4/6 419/4/6 435/4/6
f 419/3/6 423/3/6 436/3/6
f 435/4/6 419/4/6 436/4/6
f 423/4/6 427/4/6 437/4/6
f 436/3/6 423/3/6 437/3/6
f 427/4/6 428/4/6 437/4/6
f 428/3/6 431/3/6 438/3/6
f 437/4/6 428/4/6 438/4/6
f 431/4/6 432/4/6 439/4/6
f 438/3/6 431/3/6 439/3/6
f 432/3/6 433/3/6 440/3/6
f 439/4/6 432/4/6 440/4/6
f 433/4/6 434/4/6 441/4/6
f 440/3/6 433/3/6 441/3/6
f 434/3/6 429/3/6 442/3/6
f 441/4/6 434/4/6 442/4/6
f 429/4/6 430/4/6 443/4/6
f 442/3/6 429/3/6 443/3/6
f 430/4/6 426/4/6 444/4/6
f 443/4/6 430/4/6 444/4/6
f 426/3/6 422/3/6 444/3/6
f 422/4/6 414/4/6 445/4/6
f 444/3/6 422/3/6 445/3/6
f 445/4/6 414/4/6 446/4/6
f 447/3/6 448/3/6 451/3/6
f 451/3/6 448/3/6 452/3/6
f 449/3/6 450/3/6 453/3/6
f 453/3/6 450/3/6 454/3/6
f 455/4/6 456/4/6 459/4/6
f 459/4/6 456/4/6 460/4/6
f 457/4/6 458/4/6 461/4/6
f 461/4/6 458/4/6 462/4/6
f 463/4/6 464/4/6 467/4/6
f 467/4/6 464/4/6 468/4/6
f 465/4/6 466/4/6 469/4/6
f 469/4/6 466/4/6 470/4/6
