# MagicaVoxel @ Ephtracy

# group
o 

# material
mtllib cat-right-leg.vox.mtl
usemtl palette

# normals
vn -1 0 0
vn 1 0 0
vn 0 0 1
vn 0 0 -1
vn 0 -1 0
vn 0 1 0

# texcoords
vt 0.00195312 0.5
vt 0.0214844 0.5
vt 0.0253906 0.5
vt 0.990234 0.5

# verts
v 0 -0.8 0.3
v 0 -0.8 -0.2
v 0 -0.7 0.3
v 0 -0.7 -0.2
v 0 -0.3 0
v 0 -0.3 -0.2
v 0 -0.2 0
v 0 -0.2 -0.2
v 0 -0.1 0
v 0 -0.1 -0.2
v 0 0 0.3
v 0 0 0
v 0 0 -0.2
v 0.3 -0.8 0.3
v 0.3 -0.8 0.2
v 0.3 -0.8 0.1
v 0.3 -0.8 0
v 0.3 -0.8 -0.1
v 0.3 -0.8 -0.2
v 0.3 -0.7 0.3
v 0.3 -0.7 0.2
v 0.3 -0.7 0.1
v 0.3 -0.7 0
v 0.3 -0.7 -0.1
v 0.3 -0.7 -0.2
v 0.3 -0.6 0.3
v 0.3 -0.6 -0.2
v 0.3 -0.5 0.3
v 0.3 -0.5 -0.2
v 0.3 -0.4 0.3
v 0.3 -0.4 -0.2
v 0.3 -0.2 0.3
v 0.3 -0.2 -0.2
v 0.3 -0.1 0.3
v 0.3 -0.1 -0.2
v 0.3 0 0.3
v 0.3 0 -0.2
v 0 -0.8 0.3
v 0 -0.7 0.3
v 0 0 0.3
v 0.1 -0.7 0.3
v 0.1 -0.6 0.3
v 0.1 -0.5 0.3
v 0.1 -0.4 0.3
v 0.1 -0.2 0.3
v 0.1 -0.1 0.3
v 0.1 0 0.3
v 0.2 -0.8 0.3
v 0.2 -0.7 0.3
v 0.3 -0.8 0.3
v 0.3 -0.7 0.3
v 0.3 -0.6 0.3
v 0.3 -0.5 0.3
v 0.3 -0.4 0.3
v 0.3 -0.2 0.3
v 0.3 -0.1 0.3
v 0.3 0 0.3
v 0 -0.8 -0.2
v 0 -0.7 -0.2
v 0 -0.3 -0.2
v 0 -0.2 -0.2
v 0 -0.1 -0.2
v 0 0 -0.2
v 0.1 -0.7 -0.2
v 0.1 -0.6 -0.2
v 0.1 -0.5 -0.2
v 0.1 -0.4 -0.2
v 0.1 -0.3 -0.2
v 0.2 -0.8 -0.2
v 0.2 -0.7 -0.2
v 0.3 -0.8 -0.2
v 0.3 -0.7 -0.2
v 0.3 -0.6 -0.2
v 0.3 -0.5 -0.2
v 0.3 -0.4 -0.2
v 0.3 -0.2 -0.2
v 0.3 -0.1 -0.2
v 0.3 0 -0.2
v 0 -0.8 0.3
v 0.2 -0.8 0.3
v 0.3 -0.8 0.3
v 0.2 -0.8 0.2
v 0.3 -0.8 0.2
v 0.2 -0.8 0.1
v 0.3 -0.8 0.1
v 0.2 -0.8 0
v 0.3 -0.8 0
v 0.2 -0.8 -0.1
v 0.3 -0.8 -0.1
v 0 -0.8 -0.2
v 0.2 -0.8 -0.2
v 0.3 -0.8 -0.2
v 0 0 0.3
v 0.1 0 0.3
v 0.3 0 0.3
v 0 0 0
v 0.1 0 0
v 0 0 -0.2
v 0.3 0 -0.2

# faces
f 3/1/1 2/1/1 1/1/1
f 4/1/1 2/1/1 3/1/1
f 5/2/1 4/2/1 3/2/1
f 6/2/1 4/2/1 5/2/1
f 7/2/1 5/2/1 3/2/1
f 7/3/1 6/3/1 5/3/1
f 8/3/1 6/3/1 7/3/1
f 9/2/1 7/2/1 3/2/1
f 9/4/1 8/4/1 7/4/1
f 10/4/1 8/4/1 9/4/1
f 11/2/1 9/2/1 3/2/1
f 12/3/1 10/3/1 9/3/1
f 12/2/1 9/2/1 11/2/1
f 13/3/1 10/3/1 12/3/1
f 14/2/2 15/2/2 20/2/2
f 15/3/2 16/3/2 21/3/2
f 20/2/2 15/2/2 21/2/2
f 16/2/2 17/2/2 22/2/2
f 21/3/2 16/3/2 22/3/2
f 17/3/2 18/3/2 23/3/2
f 22/2/2 17/2/2 23/2/2
f 18/2/2 19/2/2 24/2/2
f 23/3/2 18/3/2 24/3/2
f 24/2/2 19/2/2 25/2/2
f 22/4/2 23/4/2 26/4/2
f 20/4/2 21/4/2 26/4/2
f 24/4/2 25/4/2 26/4/2
f 23/4/2 24/4/2 26/4/2
f 21/4/2 22/4/2 26/4/2
f 26/4/2 25/4/2 27/4/2
f 26/3/2 27/3/2 28/3/2
f 28/3/2 27/3/2 29/3/2
f 28/4/2 29/4/2 30/4/2
f 30/4/2 29/4/2 31/4/2
f 30/3/2 31/3/2 32/3/2
f 32/3/2 31/3/2 33/3/2
f 32/4/2 33/4/2 34/4/2
f 34/4/2 33/4/2 35/4/2
f 34/3/2 35/3/2 36/3/2
f 36/3/2 35/3/2 37/3/2
f 41/1/3 39/1/3 38/1/3
f 41/2/3 40/2/3 39/2/3
f 42/2/3 40/2/3 41/2/3
f 43/2/3 40/2/3 42/2/3
f 44/2/3 40/2/3 43/2/3
f 45/2/3 40/2/3 44/2/3
f 46/2/3 40/2/3 45/2/3
f 47/2/3 40/2/3 46/2/3
f 48/1/3 41/1/3 38/1/3
f 49/4/3 42/4/3 41/4/3
f 49/1/3 41/1/3 48/1/3
f 50/2/3 49/2/3 48/2/3
f 51/4/3 42/4/3 49/4/3
f 51/2/3 49/2/3 50/2/3
f 52/3/3 43/3/3 42/3/3
f 52/4/3 42/4/3 51/4/3
f 53/4/3 44/4/3 43/4/3
f 53/3/3 43/3/3 52/3/3
f 54/3/3 45/3/3 44/3/3
f 54/4/3 44/4/3 53/4/3
f 55/4/3 46/4/3 45/4/3
f 55/3/3 45/3/3 54/3/3
f 56/3/3 47/3/3 46/3/3
f 56/4/3 46/4/3 55/4/3
f 57/3/3 47/3/3 56/3/3
f 58/1/4 59/1/4 64/1/4
f 59/2/4 60/2/4 64/2/4
f 64/2/4 60/2/4 65/2/4
f 65/2/4 60/2/4 66/2/4
f 66/2/4 60/2/4 67/2/4
f 60/3/4 61/3/4 68/3/4
f 67/2/4 60/2/4 68/2/4
f 58/1/4 64/1/4 69/1/4
f 64/4/4 65/4/4 70/4/4
f 69/1/4 64/1/4 70/1/4
f 69/2/4 70/2/4 71/2/4
f 70/4/4 65/4/4 72/4/4
f 71/2/4 70/2/4 72/2/4
f 65/3/4 66/3/4 73/3/4
f 72/4/4 65/4/4 73/4/4
f 66/4/4 67/4/4 74/4/4
f 73/3/4 66/3/4 74/3/4
f 67/3/4 68/3/4 75/3/4
f 74/4/4 67/4/4 75/4/4
f 61/4/4 62/4/4 76/4/4
f 75/3/4 68/3/4 76/3/4
f 68/3/4 61/3/4 76/3/4
f 62/3/4 63/3/4 77/3/4
f 76/4/4 62/4/4 77/4/4
f 77/3/4 63/3/4 78/3/4
f 82/1/5 80/1/5 79/1/5
f 82/2/5 81/2/5 80/2/5
f 83/2/5 81/2/5 82/2/5
f 84/1/5 82/1/5 79/1/5
f 84/3/5 83/3/5 82/3/5
f 85/3/5 83/3/5 84/3/5
f 86/1/5 84/1/5 79/1/5
f 86/2/5 85/2/5 84/2/5
f 87/2/5 85/2/5 86/2/5
f 88/1/5 86/1/5 79/1/5
f 88/3/5 87/3/5 86/3/5
f 89/3/5 87/3/5 88/3/5
f 90/1/5 88/1/5 79/1/5
f 91/2/5 89/2/5 88/2/5
f 91/1/5 88/1/5 90/1/5
f 92/2/5 89/2/5 91/2/5
f 93/2/6 94/2/6 96/2/6
f 94/3/6 95/3/6 97/3/6
f 96/2/6 94/2/6 97/2/6
f 96/3/6 97/3/6 98/3/6
f 97/3/6 95/3/6 99/3/6
f 98/3/6 97/3/6 99/3/6
