# MagicaVoxel @ Ephtracy

# group
o 

# material
mtllib bear-body.vox.mtl
usemtl palette

# normals
vn -1 0 0
vn 1 0 0
vn 0 0 1
vn 0 0 -1
vn 0 -1 0
vn 0 1 0

# texcoords
vt 0.0175781 0.5
vt 0.0214844 0.5

# verts
v -0.6 -0.6 0.3
v -0.6 -0.6 -0.2
v -0.6 0 0.3
v -0.6 0 -0.2
v -0.2 -0.7 -0.2
v -0.2 -0.7 -0.5
v -0.2 -0.6 -0.2
v -0.2 -0.4 -0.2
v -0.2 -0.4 -0.5
v 0.1 -0.7 -0.2
v 0.1 -0.7 -0.5
v 0.1 -0.6 -0.2
v 0.1 -0.4 -0.2
v 0.1 -0.4 -0.5
v 0.5 -0.6 0.3
v 0.5 -0.6 -0.2
v 0.5 0 0.3
v 0.5 0 -0.2
v -0.6 -0.6 0.3
v -0.6 0 0.3
v -0.3 -0.6 0.3
v -0.3 -0.2 0.3
v 0.2 -0.6 0.3
v 0.2 -0.2 0.3
v 0.5 -0.6 0.3
v 0.5 0 0.3
v -0.2 -0.7 -0.2
v -0.2 -0.6 -0.2
v 0.1 -0.7 -0.2
v 0.1 -0.6 -0.2
v -0.6 -0.6 -0.2
v -0.6 0 -0.2
v -0.2 -0.6 -0.2
v -0.2 -0.4 -0.2
v 0.1 -0.6 -0.2
v 0.1 -0.4 -0.2
v 0.5 -0.6 -0.2
v 0.5 0 -0.2
v -0.2 -0.7 -0.5
v -0.2 -0.4 -0.5
v 0.1 -0.7 -0.5
v 0.1 -0.4 -0.5
v -0.2 -0.7 -0.2
v 0.1 -0.7 -0.2
v -0.2 -0.7 -0.5
v 0.1 -0.7 -0.5
v -0.6 -0.6 0.3
v -0.3 -0.6 0.3
v 0.2 -0.6 0.3
v 0.5 -0.6 0.3
v -0.3 -0.6 0.2
v 0.2 -0.6 0.2
v -0.6 -0.6 -0.2
v -0.2 -0.6 -0.2
v 0.1 -0.6 -0.2
v 0.5 -0.6 -0.2
v -0.2 -0.4 -0.2
v 0.1 -0.4 -0.2
v -0.2 -0.4 -0.5
v 0.1 -0.4 -0.5
v -0.6 0 0.3
v 0.5 0 0.3
v -0.6 0 -0.2
v 0.5 0 -0.2

# faces
f 3/1/1 2/1/1 1/1/1
f 4/1/1 2/1/1 3/1/1
f 7/2/1 6/2/1 5/2/1
f 8/2/1 6/2/1 7/2/1
f 9/2/1 6/2/1 8/2/1
f 10/2/2 11/2/2 12/2/2
f 12/2/2 11/2/2 13/2/2
f 13/2/2 11/2/2 14/2/2
f 15/1/2 16/1/2 17/1/2
f 17/1/2 16/1/2 18/1/2
f 21/1/3 20/1/3 19/1/3
f 22/1/3 20/1/3 21/1/3
f 23/2/3 22/2/3 21/2/3
f 24/1/3 20/1/3 22/1/3
f 24/2/3 22/2/3 23/2/3
f 25/1/3 24/1/3 23/1/3
f 26/1/3 20/1/3 24/1/3
f 26/1/3 24/1/3 25/1/3
f 29/2/3 28/2/3 27/2/3
f 30/2/3 28/2/3 29/2/3
f 31/1/4 32/1/4 33/1/4
f 33/1/4 32/1/4 34/1/4
f 34/1/4 32/1/4 36/1/4
f 35/1/4 36/1/4 37/1/4
f 36/1/4 32/1/4 38/1/4
f 37/1/4 36/1/4 38/1/4
f 39/2/4 40/2/4 41/2/4
f 41/2/4 40/2/4 42/2/4
f 45/2/5 44/2/5 43/2/5
f 46/2/5 44/2/5 45/2/5
f 51/1/5 48/1/5 47/1/5
f 51/2/5 49/2/5 48/2/5
f 52/1/5 50/1/5 49/1/5
f 52/2/5 49/2/5 51/2/5
f 53/1/5 51/1/5 47/1/5
f 53/1/5 52/1/5 51/1/5
f 54/1/5 52/1/5 53/1/5
f 55/1/5 52/1/5 54/1/5
f 56/1/5 50/1/5 52/1/5
f 56/1/5 52/1/5 55/1/5
f 57/2/6 58/2/6 59/2/6
f 59/2/6 58/2/6 60/2/6
f 61/1/6 62/1/6 63/1/6
f 63/1/6 62/1/6 64/1/6
